<?xml version="1.0" encoding="UTF-8"?><svg id="Calque_1" xmlns="http://www.w3.org/2000/svg" viewBox="0 0 590.99 589.9"><defs><style>.cls-1{fill:#fff;}</style></defs><path d="m576.47,294.95c0,155.18-125.8,280.97-280.98,280.97-141.38,0-258.37-104.41-278.05-240.34h41.32c71.3.25,142.59.11,213.9.11h13.96c-2.98,4.59-4.05,7.02-5.8,8.79-7.66,7.71-15.61,15.12-23.27,22.83-15.05,15.18-31.11,29.54-44.65,45.98-15.14,18.41-8.59,42.96,4.7,54.34,16.96,14.52,41.03,13.28,57.4-2.84,46.71-46.01,93.11-92.33,139.14-139.02,18.68-18.95,17.79-43.43-.74-62.77-4.7-4.91-9.61-9.61-14.42-14.41-41.12-41.07-82.11-82.27-123.4-123.16-16.26-16.1-40.74-17.44-57.45-3.97-14.91,12.01-18.88,36.67-5.35,54.24,12.93,16.81,29.38,30.93,44.28,46.22,9.81,10.06,19.61,20.12,30.94,31.75-5.06.38-8.24.83-11.41.84-24.21.02-48.41.01-72.62,0H17.41C37,118.49,154.04,13.97,295.49,13.97c155.18,0,280.98,125.8,280.98,280.98Z"/><g id="TBfm0h"><path class="cls-1" d="m203.97,254.51H42.72c42.94-.12,85.88-.02,128.82,0,10.81,0,21.62,0,32.43,0Z"/></g></svg>